<svg width="90" height="90" viewBox="0 0 90 90" fill="none" xmlns="http://www.w3.org/2000/svg">
<rect width="90" height="90" rx="16" fill="black"/>
<path d="M29.4209 34.94V49.28C29.4209 51.5 28.7909 53.21 27.5309 54.41C26.2909 55.61 24.6109 56.21 22.4909 56.21C20.2709 56.21 18.4909 55.58 17.1509 54.32C15.8109 53.06 15.1409 51.27 15.1409 48.95H20.2409C20.2409 49.83 20.4209 50.5 20.7809 50.96C21.1409 51.4 21.6609 51.62 22.3409 51.62C22.9609 51.62 23.4409 51.42 23.7809 51.02C24.1209 50.62 24.2909 50.04 24.2909 49.28V34.94H29.4209ZM54.2647 39.26L43.7647 63.95H38.2447L42.0847 55.43L35.2747 39.26H41.0047L44.8747 49.73L48.7147 39.26H54.2647ZM67.2498 51.2L70.8798 39.26H76.3398L70.3998 56H64.0698L58.1298 39.26H63.6198L67.2498 51.2Z" fill="white"/>
</svg>
